HIERARCHY
ROOT Hips
{
 OFFSET 0.000000 0.000000 0.000000
 CHANNELS 6 Xposition Yposition Zposition Yrotation Xrotation Zrotation
 JOINT Chest
 {
  OFFSET 0.000000 9.585900 0.002600
  CHANNELS 3 Yrotation Xrotation Zrotation
  JOINT Chest2
  {
   OFFSET 0.000000 9.601200 -0.005300
   CHANNELS 3 Yrotation Xrotation Zrotation
   JOINT Chest3
   {
    OFFSET 0.000000 9.561800 0.000000
    CHANNELS 3 Yrotation Xrotation Zrotation
    JOINT Chest4
    {
     OFFSET 0.000000 9.552100 0.000000
     CHANNELS 3 Yrotation Xrotation Zrotation
     JOINT Neck
     {
      OFFSET 0.000000 14.453000 0.000000
      CHANNELS 3 Yrotation Xrotation Zrotation
      JOINT Head
      {
       OFFSET 0.000000 8.936500 -0.011300
       CHANNELS 3 Yrotation Xrotation Zrotation
       End Site
       {
        OFFSET 0.000000 17.073600 -0.006000
       }
      }
     }
     JOINT RightCollar
     {
      OFFSET -2.921100 9.558500 0.000000
      CHANNELS 3 Yrotation Xrotation Zrotation
      JOINT RightShoulder
      {
       OFFSET -13.519700 0.000000 0.000000
       CHANNELS 3 Yrotation Xrotation Zrotation
       JOINT RightElbow
       {
        OFFSET 0.000000 -29.696600 0.000000
        CHANNELS 3 Yrotation Xrotation Zrotation
        JOINT RightWrist
        {
         OFFSET 0.000000 -24.004700 0.000000
         CHANNELS 3 Yrotation Xrotation Zrotation
         End Site
         {
          OFFSET 0.000000 -17.728500 0.000000
         }
        }
       }
      }
     }
     JOINT LeftCollar
     {
      OFFSET 2.921100 9.558500 0.000000
      CHANNELS 3 Yrotation Xrotation Zrotation
      JOINT LeftShoulder
      {
       OFFSET 13.519700 0.000000 0.000000
       CHANNELS 3 Yrotation Xrotation Zrotation
       JOINT LeftElbow
       {
        OFFSET 0.000000 -29.696600 0.000000
        CHANNELS 3 Yrotation Xrotation Zrotation
        JOINT LeftWrist
        {
         OFFSET 0.000000 -24.004700 0.000000
         CHANNELS 3 Yrotation Xrotation Zrotation
         End Site
         {
          OFFSET 0.000000 -17.728500 0.000000
         }
        }
       }
      }
     }
    }
   }
  }
 }
 JOINT RightHip
 {
  OFFSET -7.771700 -0.012900 -0.001300
  CHANNELS 3 Yrotation Xrotation Zrotation
  JOINT RightKnee
  {
   OFFSET 0.000000 -40.869800 0.001200
   CHANNELS 3 Yrotation Xrotation Zrotation
   JOINT RightAnkle
   {
    OFFSET 0.000000 -39.717900 0.002100
    CHANNELS 3 Yrotation Xrotation Zrotation
    JOINT RightToe
    {
     OFFSET 0.000000 -4.965400 11.033500
     CHANNELS 3 Yrotation Xrotation Zrotation
     End Site
     {
      OFFSET 0.000000 -1.423100 5.872300
     }
    }
   }
  }
 }
 JOINT LeftHip
 {
  OFFSET 7.771700 -0.012900 -0.001300
  CHANNELS 3 Yrotation Xrotation Zrotation
  JOINT LeftKnee
  {
   OFFSET 0.000000 -40.869800 0.001200
   CHANNELS 3 Yrotation Xrotation Zrotation
   JOINT LeftAnkle
   {
    OFFSET 0.000000 -39.717900 0.002100
    CHANNELS 3 Yrotation Xrotation Zrotation
    JOINT LeftToe
    {
     OFFSET 0.000000 -4.965400 11.033500
     CHANNELS 3 Yrotation Xrotation Zrotation
     End Site
     {
      OFFSET 0.000000 -1.423100 5.872300
     }
    }
   }
  }
 }
}
MOTION
Frames: 8
Frame Time: 0.008333
-276.883439 60.183005 -83.886607 157.852999 -27.819062 2.474203 4.926086 18.577885 1.924062 0.558122 2.169446 0.160098 0.888048 3.629440 0.282808 4.169408 16.062873 1.726315 2.071219 16.639206 -2.562983 2.787031 -8.204679 -3.197092 2.697466 6.977567 -3.464804 2.904400 -15.912611 -6.582264 -46.209038 -64.807131 58.817443 -5.633618 -3.644921 -27.060299 -9.621497 4.050246 -5.630993 12.873393 -9.537849 4.613691 43.674811 -75.128288 -68.256188 -7.270121 7.484519 3.026672 0.742246 -42.231876 5.690958 -26.155973 69.154560 -24.646708 -0.190722 -3.604351 -2.113289 0.003099 -0.185854 0.032288 14.819495 -41.702692 -0.718996 26.961040 61.199132 27.293226 -14.713311 -13.691426 2.543202 0.113615 0.223820 0.055750
-276.886868 60.184308 -83.883650 157.864762 -27.861378 2.444614 4.947134 18.583725 1.956331 0.554810 2.172452 0.162020 0.883482 3.637302 0.283575 4.167658 16.070376 1.729788 2.067635 16.648959 -2.557506 2.781252 -8.170725 -3.175100 2.693249 6.950625 -3.477847 2.909195 -15.896507 -6.566564 -46.189677 -64.793054 58.791541 -5.633991 -3.642772 -27.063421 -9.583237 4.009467 -5.619169 12.850461 -9.506434 4.619077 43.671135 -75.173593 -68.201834 -7.264387 7.508916 2.967577 0.713761 -42.186990 5.736838 -26.162184 69.141327 -24.674722 -0.195854 -3.596065 -2.097344 -0.001152 -0.187500 0.030207 14.800711 -41.670367 -0.682447 26.931702 61.205071 27.270650 -14.679376 -13.712750 2.546419 0.096328 0.226244 0.053099
-276.893215 60.185134 -83.881109 157.890287 -27.898068 2.425759 4.963758 18.557370 1.973637 0.527419 2.217955 0.166815 0.878331 3.644657 0.284032 4.174823 16.063685 1.729294 2.079763 16.650665 -2.552751 2.759660 -8.146566 -3.159558 2.690023 6.924385 -3.491511 2.923792 -15.877350 -6.554199 -46.187273 -64.780375 58.773315 -5.632286 -3.638992 -27.055293 -9.558499 3.986160 -5.611276 12.841826 -9.494446 4.618869 43.600488 -75.210464 -68.118163 -7.264107 7.520791 2.936537 0.695571 -42.145164 5.762643 -26.197572 69.121528 -24.724758 -0.217071 -3.598086 -2.093922 0.014703 -0.181184 0.036840 14.802769 -41.641524 -0.664373 26.873880 61.217519 27.216938 -14.750479 -13.723372 2.551645 0.061250 0.226322 0.059472
-276.901760 60.185786 -83.879378 157.905499 -27.932767 2.426122 4.966189 18.559753 1.970793 0.519630 2.235193 0.171203 0.889907 3.630405 0.283883 4.177857 16.063515 1.731398 2.063026 16.674522 -2.543141 2.755036 -8.139030 -3.154906 2.673990 6.913446 -3.502882 2.951874 -15.877219 -6.551218 -46.181384 -64.764827 58.775288 -5.642347 -3.632400 -27.085860 -9.568038 3.999529 -5.605817 12.880074 -9.535572 4.614677 43.429928 -75.218519 -67.973852 -7.274048 7.529973 2.913055 0.693488 -42.110040 5.760316 -26.219921 69.113396 -24.752649 -0.234763 -3.599795 -2.099743 0.030377 -0.178108 0.043524 14.801723 -41.607687 -0.662952 26.857341 61.220379 27.191893 -14.809259 -13.717267 2.563896 0.036079 0.217967 0.058430
-276.914171 60.184048 -83.874555 157.927748 -27.937934 2.438534 4.952669 18.542155 1.947939 0.542705 2.195869 0.164830 0.871638 3.660786 0.289409 4.179931 16.065052 1.733111 2.053370 16.699336 -2.529169 2.748362 -8.121067 -3.142970 2.664262 6.904315 -3.512027 2.960821 -15.860362 -6.534708 -46.171981 -64.756620 58.766408 -5.631591 -3.639422 -27.077648 -9.569743 4.014555 -5.597174 12.891396 -9.550903 4.618921 43.368786 -75.244418 -67.912346 -7.289556 7.543293 2.885595 0.702464 -42.106109 5.739314 -26.244944 69.101138 -24.801085 -0.239394 -3.601243 -2.076517 0.030749 -0.169557 0.037745 14.813956 -41.597814 -0.689838 26.875491 61.199665 27.181429 -14.877756 -13.690845 2.589442 0.005057 0.205412 0.051656
-276.923310 60.184202 -83.872826 157.939792 -27.969923 2.445831 4.941990 18.567006 1.937627 0.547449 2.188490 0.164066 0.896205 3.625284 0.283393 4.169761 16.088572 1.740420 2.046566 16.717469 -2.517277 2.738440 -8.102086 -3.128799 2.649917 6.900468 -3.517128 2.972323 -15.852850 -6.526215 -46.165839 -64.739668 58.748804 -5.631263 -3.640047 -27.079530 -9.563359 4.009087 -5.581908 12.891542 -9.550658 4.621681 43.313932 -75.269303 -67.854103 -7.307385 7.555956 2.857689 0.706352 -42.074343 5.730909 -26.237270 69.091230 -24.827727 -0.233218 -3.592425 -2.045357 0.013161 -0.168672 0.029937 14.819081 -41.564719 -0.696544 26.872532 61.188882 27.170320 -14.893281 -13.653064 2.578858 0.014104 0.168690 0.053314
-276.928816 60.184112 -83.869723 157.962375 -28.002596 2.426571 4.942806 18.566909 1.952464 0.538505 2.203844 0.165719 0.891746 3.632895 0.284505 4.199983 16.046514 1.730655 2.024153 16.757811 -2.495658 2.717645 -8.068867 -3.103855 2.619476 6.938273 -3.499965 2.988186 -15.862894 -6.535115 -46.171320 -64.740031 58.755196 -5.630589 -3.632262 -27.083419 -9.546688 3.994739 -5.569169 12.865218 -9.517662 4.640265 43.260673 -75.296060 -67.800488 -7.324082 7.565548 2.836586 0.680964 -42.042594 5.745983 -26.247161 69.086979 -24.841570 -0.236578 -3.587866 -2.060053 0.015386 -0.171207 0.045984 14.796995 -41.536188 -0.674426 26.884167 61.168820 27.163069 -14.857957 -13.616366 2.585948 0.041611 0.152507 0.055521
-276.935786 60.182824 -83.864954 157.986381 -28.021671 2.412516 4.968230 18.523230 1.967876 0.513312 2.235071 0.167221 0.892084 3.633257 0.284869 4.186501 16.067390 1.736541 2.025234 16.758571 -2.493080 2.710085 -8.059067 -3.098165 2.622480 6.904591 -3.523423 2.991035 -15.844344 -6.522601 -46.170038 -64.740962 58.764740 -5.615866 -3.630548 -27.064801 -9.544078 3.992411 -5.568808 12.875961 -9.542849 4.642557 43.204840 -75.324734 -67.748166 -7.336629 7.573703 2.821461 0.663300 -42.025565 5.757777 -26.261679 69.073919 -24.872736 -0.240015 -3.575165 -2.044510 0.014356 -0.173439 0.044532 14.775707 -41.519745 -0.665214 26.919150 61.139757 27.169373 -14.806531 -13.572704 2.599464 0.064127 0.139977 0.054821
